{"title":"Thunderstorm.The.Return.of.Thor.2011.BRRip.XviD.AC3-SDTiN","uid":8294424,"size":1530198972,"categoryP":"video","categoryS":"movies","magnet":"?xt=urn:btih:05635ccd5048d9786a73ad58fcf3f49f6274c2d5&amp;dn=Thunderstorm.The.Return.of.Thor.2011.BRRip.XviD.AC3-SDTiN&amp;tr=udp%3A%2F%2Ftracker.openbittorrent.com%3A80&amp;tr=udp%3A%2F%2Fopen.demonii.com%3A1337&amp;tr=udp%3A%2F%2Ftracker.coppersurfer.tk%3A6969&amp;tr=udp%3A%2F%2Fexodus.desync.com%3A6969","seeders":1,"leechers":3,"uploader":"sceneline","files":5,"time":1364124733,"description":"-\n\n      the fast  and The Hottest Private Tracker on the net\n\nPlease Seed back to make the speed Faster!!\n ............ NFO .............\n-http://www.imdb.com/title/tt1843309/\n\nGeneral\nComplete name                            : Thunderstorm.The.Return.of.Thor.2011.BRRip.XviD.AC3-SDTiN.avi\nFormat                                   : AVI\nFormat/Info                              : Audio Video Interleave\nFile size                                : 1.43 GiB\nDuration                                 : 1h 25mn\nOverall bit rate                         : 2 381 Kbps\n\nVideo\nFormat                                   : MPEG-4 Visual\nFormat profile                           : Advanced Simple@L5\nFormat settings, BVOP                    : 2\nFormat settings, QPel                    : No\nFormat settings, GMC                     : No warppoints\nFormat settings, Matrix                  : Default (H.263)\nCodec ID                                 : XVID\nDuration                                 : 1h 25mn\nBit rate                                 : 1 988 Kbps\nWidth                                    : 720 pixels\nHeight                                   : 400 pixels\nDisplay aspect ratio                     : 16:9\nFrame rate                               : 23.976 fps\nColor space                              : YUV\nChroma subsampling                       : 4:2:0\nBit depth                                : 8 bits\nScan type                                : Progressive\nCompression mode                         : Lossy\nBits/(Pixel*Frame)                       : 0.288\nStream size                              : 1.19 GiB (83%)\n\nAudio\nID                                       : 1\nFormat                                   : AC-3\nFormat/Info                              : Audio Coding 3\nMode extension                           : CM (complete main)\nFormat settings, Endianness              : Big\nCodec ID                                 : 2000\nDuration                                 : 1h 25mn\nBit rate mode                            : Constant\nBit rate                                 : 384 Kbps\nChannel(s)                               : 6 channels\nChannel positions                        : Front: L C R, Side: L R, LFE\nSampling rate                            : 48.0 KHz\nBit depth                                : 16 bits\nCompression mode                         : Lossy\nStream size                              : 235 MiB (16%)\nAlignment                                : Split accross interleaves\nInterleave, duration                     : 42 ms (1.00 video frame)\nInterleave, preload duration             : 500 ms","torrent":{"xt":"urn:btih:05635ccd5048d9786a73ad58fcf3f49f6274c2d5","amp;dn":"Thunderstorm.The.Return.of.Thor.2011.BRRip.XviD.AC3-SDTiN","amp;tr":["udp%3A%2F%2Ftracker.openbittorrent.com%3A80","udp%3A%2F%2Fopen.demonii.com%3A1337","udp%3A%2F%2Ftracker.coppersurfer.tk%3A6969","udp%3A%2F%2Fexodus.desync.com%3A6969"],"infoHash":"05635ccd5048d9786a73ad58fcf3f49f6274c2d5","infoHashBuffer":{"type":"Buffer","data":[5,99,92,205,80,72,217,120,106,115,173,88,252,243,244,159,98,116,194,213]},"announce":[],"urlList":[]}}